:FULLY-SPECIFIED
:FORCE-ALL-JOINTS-BE-3DOF
:DEGREES
1019
root 1.14834 15.1588 32.4591 4.8698 -3.49731 363.547
lfemur 8.52032 0.532345 5.74979
ltibia -1.48932e-14 0 0
lfoot -30.1511 -11.067 0
ltoes -34.3777 0 0
rfemur -31.6035 -15.9117 -6.02406
rtibia 50.2608 0 0
rfoot -22.257 5.01549 0
rtoes -42.1076 0 0
lowerback -1.49091 -0.134046 0.223938
upperback -0.539069 -0.164347 -5.97754
thorax 0.263504 -0.0889894 -6.32767
lowerneck -7.15422 0.906581 6.32376
upperneck 1.65477 0.514678 3.55659
head 1.74348 0.394325 0.0662977
lclavicle 2.19982e-15 -1.17481e-14 0
lhumerus -58.6662 -46.4862 115.297
lradius 55.6919 0 0
lwrist 25.2407 0 0
lhand 37.2957 24.9901 0
lfingers 7.12502 0 0
lthumb 60.1181 38.6458 0
rclavicle 2.19982e-15 -1.17481e-14 0
rhumerus 2.78151 -23.9318 0.20417
rradius 27.6097 0 0
rwrist -10.1799 0 0
rhand -30.7309 -42.8361 0
rfingers 7.12502 0 0
rthumb -4.02326 -792.777 0
1020
root 1.14904 15.1589 32.4583 4.85905 -3.47244 363.534
lfemur 8.51653 0.506195 5.76213
ltibia -1.59484e-14 0 0
lfoot -30.1521 -11.0533 0
ltoes -34.3883 0 0
rfemur -31.5748 -15.9205 -6.019
rtibia 50.2486 0 0
rfoot -22.2497 5.01586 0
rtoes -42.1121 0 0
lowerback -1.48946 -0.12801 0.213621
upperback -0.535298 -0.155918 -5.97898
thorax 0.267604 -0.0845803 -6.32313
lowerneck -7.16456 0.901717 6.33326
upperneck 1.66719 0.505793 3.56147
head 1.74929 0.390619 0.0659949
lclavicle 2.27159e-15 -1.15929e-14 0
lhumerus -58.6733 -46.5153 115.308
lradius 55.7056 0 0
lwrist 25.2422 0 0
lhand 37.2957 25.0008 0
lfingers 7.12502 0 0
lthumb 60.1181 38.6565 0
rclavicle 2.27159e-15 -1.15929e-14 0
rhumerus 2.7611 -23.9086 0.212162
rradius 27.6011 0 0
rwrist -10.1562 0 0
rhand -30.7155 -42.7982 0
rfingers 7.12502 0 0
rthumb -4.00834 -792.74 0
1021
root 1.14965 15.159 32.4577 4.84968 -3.45079 363.524
lfemur 8.51323 0.483428 5.77287
ltibia -1.68671e-14 0 0
lfoot -30.153 -11.0414 0
ltoes -34.3975 0 0
rfemur -31.5498 -15.9281 -6.0146
rtibia 50.238 0 0
rfoot -22.2433 5.01618 0
rtoes -42.116 0 0
lowerback -1.4882 -0.122754 0.204638
upperback -0.532015 -0.148579 -5.98024
thorax 0.271174 -0.0807415 -6.31918
lowerneck -7.17356 0.897481 6.34153
upperneck 1.678 0.498057 3.56573
head 1.75435 0.387393 0.0657313
lclavicle 2.33407e-15 -1.14578e-14 0
lhumerus -58.6795 -46.5407 115.318
lradius 55.7176 0 0
lwrist 25.2435 0 0
lhand 37.2956 25.0102 0
lfingers 7.12502 0 0
lthumb 60.118 38.6659 0
rclavicle 2.33407e-15 -1.14578e-14 0
rhumerus 2.74333 -23.8884 0.21912
rradius 27.5937 0 0
rwrist -10.1355 0 0
rhand -30.702 -42.7652 0
rfingers 7.12502 0 0
rthumb -3.99536 -792.707 0
1022
root 1.15016 15.1591 32.4571 4.84181 -3.43259 363.515
lfemur 8.51045 0.464277 5.7819
ltibia -1.76398e-14 0 0
lfoot -30.1537 -11.0313 0
ltoes -34.4053 0 0
rfemur -31.5288 -15.9346 -6.0109
rtibia 50.2291 0 0
rfoot -22.2379 5.01645 0
rtoes -42.1192 0 0
lowerback -1.48714 -0.118333 0.197082
upperback -0.529254 -0.142406 -5.9813
thorax 0.274177 -0.0775125 -6.31585
lowerneck -7.18113 0.893918 6.34849
upperneck 1.6871 0.49155 3.56931
head 1.75861 0.384679 0.0655095
lclavicle 2.38663e-15 -1.13442e-14 0
lhumerus -58.6847 -46.562 115.326
lradius 55.7276 0 0
lwrist 25.2446 0 0
lhand 37.2956 25.018 0
lfingers 7.12502 0 0
lthumb 60.118 38.6738 0
rclavicle 2.38663e-15 -1.13442e-14 0
rhumerus 2.72839 -23.8714 0.224973
rradius 27.5874 0 0
rwrist -10.1181 0 0
rhand -30.6907 -42.7374 0
rfingers 7.12502 0 0
rthumb -3.98444 -792.679 0
1023
root 1.15056 15.1592 32.4567 4.83552 -3.41804 363.508
lfemur 8.50823 0.448975 5.78912
ltibia -1.82572e-14 0 0
lfoot -30.1542 -11.0233 0
ltoes -34.4115 0 0
rfemur -31.512 -15.9397 -6.00794
rtibia 50.222 0 0
rfoot -22.2336 5.01667 0
rtoes -42.1218 0 0
lowerback -1.48629 -0.114801 0.191045
upperback -0.527047 -0.137474 -5.98215
thorax 0.276576 -0.0749325 -6.31319
lowerneck -7.18718 0.891072 6.35405
upperneck 1.69437 0.48635 3.57216
head 1.76201 0.382511 0.0653324
lclavicle 2.42862e-15 -1.12534e-14 0
lhumerus -58.6888 -46.579 115.333
lradius 55.7357 0 0
lwrist 25.2454 0 0
lhand 37.2956 25.0243 0
lfingers 7.12502 0 0
lthumb 60.118 38.6801 0
rclavicle 2.42862e-15 -1.12534e-14 0
rhumerus 2.71645 -23.8579 0.229649
rradius 27.5824 0 0
rwrist -10.1042 0 0
rhand -30.6817 -42.7153 0
rfingers 7.12502 0 0
rthumb -3.97571 -792.657 0
1024
root 1.15086 15.1593 32.4564 4.83091 -3.40737 363.502
lfemur 8.5066 0.437757 5.79441
ltibia -1.87099e-14 0 0
lfoot -30.1547 -11.0174 0
ltoes -34.416 0 0
rfemur -31.4997 -15.9435 -6.00577
rtibia 50.2168 0 0
rfoot -22.2304 5.01683 0
rtoes -42.1237 0 0
lowerback -1.48566 -0.112211 0.186619
upperback -0.52543 -0.133858 -5.98277
thorax 0.278335 -0.073041 -6.31125
lowerneck -7.19161 0.888985 6.35813
upperneck 1.69969 0.482539 3.57426
head 1.7645 0.380921 0.0652025
lclavicle 2.45941e-15 -1.11868e-14 0
lhumerus -58.6919 -46.5915 115.338
lradius 55.7415 0 0
lwrist 25.2461 0 0
lhand 37.2956 25.0289 0
lfingers 7.12502 0 0
lthumb 60.118 38.6847 0
rclavicle 2.45941e-15 -1.11868e-14 0
rhumerus 2.70769 -23.8479 0.233078
rradius 27.5787 0 0
rwrist -10.094 0 0
rhand -30.6751 -42.699 0
rfingers 7.12502 0 0
rthumb -3.96932 -792.641 0
1025
root 1.15105 15.1593 32.4562 4.82807 -3.40081 363.499
lfemur 8.5056 0.430855 5.79767
ltibia -1.89884e-14 0 0
lfoot -30.1549 -11.0138 0
ltoes -34.4188 0 0
rfemur -31.4921 -15.9458 -6.00443
rtibia 50.2136 0 0
rfoot -22.2285 5.01693 0
rtoes -42.1249 0 0
lowerback -1.48528 -0.110618 0.183896
upperback -0.524434 -0.131633 -5.98315
thorax 0.279417 -0.0718773 -6.31005
lowerneck -7.19434 0.887701 6.36064
upperneck 1.70297 0.480193 3.57555
head 1.76604 0.379943 0.0651225
lclavicle 2.47835e-15 -1.11459e-14 0
lhumerus -58.6938 -46.5992 115.341
lradius 55.7452 0 0
lwrist 25.2465 0 0
lhand 37.2956 25.0317 0
lfingers 7.12502 0 0
lthumb 60.118 38.6875 0
rclavicle 2.47835e-15 -1.11459e-14 0
rhumerus 2.70231 -23.8418 0.235187
rradius 27.5765 0 0
rwrist -10.0877 0 0
rhand -30.671 -42.689 0
rfingers 7.12502 0 0
rthumb -3.96538 -792.631 0
1026
root 1.15111 15.1593 32.4561 4.8271 -3.39857 363.498
lfemur 8.50526 0.428502 5.79878
ltibia -1.90833e-14 0 0
lfoot -30.155 -11.0126 0
ltoes -34.4198 0 0
rfemur -31.4895 -15.9466 -6.00398
rtibia 50.2125 0 0
rfoot -22.2278 5.01696 0
rtoes -42.1253 0 0
lowerback -1.48515 -0.110075 0.182968
upperback -0.524095 -0.130875 -5.98328
thorax 0.279786 -0.0714806 -6.30964
lowerneck -7.19527 0.887263 6.36149
upperneck 1.70409 0.479394 3.57599
head 1.76656 0.37961 0.0650953
lclavicle 2.48481e-15 -1.11319e-14 0
lhumerus -58.6944 -46.6018 115.342
lradius 55.7464 0 0
lwrist 25.2466 0 0
lhand 37.2956 25.0327 0
lfingers 7.12502 0 0
lthumb 60.118 38.6885 0
rclavicle 2.48481e-15 -1.11319e-14 0
rhumerus 2.70047 -23.8397 0.235906
rradius 27.5757 0 0
rwrist -10.0856 0 0
rhand -30.6696 -42.6856 0
rfingers 7.12502 0 0
rthumb -3.96404 -792.628 0
1027
root 1.15125 15.1593 32.4564 4.82732 -3.39868 363.498
lfemur 8.50497 0.428779 5.79826
ltibia 0.00236189 0 0
lfoot -30.1568 -11.0123 0
ltoes -34.4196 0 0
rfemur -31.4882 -15.9457 -6.00449
rtibia 50.2117 0 0
rfoot -22.2271 5.01772 0
rtoes -42.1229 0 0
lowerback -1.48601 -0.10998 0.18203
upperback -0.524045 -0.1307 -5.98316
thorax 0.28034 -0.0713842 -6.30897
lowerneck -7.19499 0.886945 6.36157
upperneck 1.70332 0.479018 3.57624
head 1.76625 0.379398 0.0651453
lclavicle 2.50453e-15 -1.1157e-14 0
lhumerus -58.6939 -46.6019 115.342
lradius 55.7464 0 0
lwrist 25.2472 0 0
lhand 37.296 25.0332 0
lfingers 7.12502 0 0
lthumb 60.1184 38.6887 0
rclavicle 2.50453e-15 -1.1157e-14 0
rhumerus 2.69928 -23.8387 0.236709
rradius 27.5756 0 0
rwrist -10.0843 0 0
rhand -30.6696 -42.6843 0
rfingers 7.12502 0 0
rthumb -3.96405 -792.627 0
1028
root 1.15167 15.1593 32.4572 4.82796 -3.39902 363.496
lfemur 8.5041 0.42959 5.79674
ltibia 0.0092914 0 0
lfoot -30.1619 -11.0116 0
ltoes -34.4191 0 0
rfemur -31.4843 -15.9432 -6.006
rtibia 50.2093 0 0
rfoot -22.2251 5.01995 0
rtoes -42.1159 0 0
lowerback -1.48852 -0.109703 0.179278
upperback -0.523897 -0.130186 -5.98279
thorax 0.281964 -0.0711012 -6.307
lowerneck -7.19417 0.886012 6.36181
upperneck 1.70105 0.477916 3.57698
head 1.76535 0.378777 0.065292
lclavicle 2.56238e-15 -1.12307e-14 0
lhumerus -58.6925 -46.6023 115.342
lradius 55.7463 0 0
lwrist 25.2488 0 0
lhand 37.2972 25.0348 0
lfingers 7.12502 0 0
lthumb 60.1194 38.6891 0
rclavicle 2.56238e-15 -1.12307e-14 0
rhumerus 2.6958 -23.8358 0.239063
rradius 27.5754 0 0
rwrist -10.0807 0 0
rhand -30.6696 -42.6804 0
rfingers 7.12502 0 0
rthumb -3.96409 -792.623 0
1029
root 1.15236 15.1594 32.4584 4.82901 -3.39956 363.495
lfemur 8.5027 0.430909 5.79426
ltibia 0.0205543 0 0
lfoot -30.1702 -11.0103 0
ltoes -34.4183 0 0
rfemur -31.4779 -15.9392 -6.00845
rtibia 50.2054 0 0
rfoot -22.2217 5.02358 0
rtoes -42.1045 0 0
lowerback -1.49261 -0.109252 0.174806
upperback -0.523657 -0.129351 -5.9822
thorax 0.284604 -0.0706414 -6.3038
lowerneck -7.19283 0.884496 6.36221
upperneck 1.69737 0.476124 3.57817
head 1.76387 0.377767 0.0655305
lclavicle 2.65641e-15 -1.13506e-14 0
lhumerus -58.6903 -46.603 115.342
lradius 55.7461 0 0
lwrist 25.2515 0 0
lhand 37.2992 25.0374 0
lfingers 7.12502 0 0
lthumb 60.1211 38.6899 0
rclavicle 2.65641e-15 -1.13506e-14 0
rhumerus 2.69013 -23.8311 0.24289
rradius 27.575 0 0
rwrist -10.0747 0 0
rhand -30.6697 -42.6742 0
rfingers 7.12502 0 0
rthumb -3.96415 -792.617 0
1030
root 1.15329 15.1595 32.4602 4.83043 -3.4003 363.492
lfemur 8.50078 0.432708 5.79089
ltibia 0.0359163 0 0
lfoot -30.1816 -11.0086 0
ltoes -34.4171 0 0
rfemur -31.4692 -15.9336 -6.01178
rtibia 50.2 0 0
rfoot -22.2172 5.02853 0
rtoes -42.089 0 0
lowerback -1.49818 -0.108637 0.168705
upperback -0.52333 -0.128211 -5.9814
thorax 0.288206 -0.0700142 -6.29944
lowerneck -7.191 0.882428 6.36275
upperneck 1.69235 0.473681 3.5798
head 1.76186 0.37639 0.0658558
lclavicle 2.78465e-15 -1.1514e-14 0
lhumerus -58.6872 -46.6039 115.343
lradius 55.7459 0 0
lwrist 25.2551 0 0
lhand 37.3019 25.0409 0
lfingers 7.12502 0 0
lthumb 60.1234 38.6909 0
rclavicle 2.78465e-15 -1.1514e-14 0
rhumerus 2.68241 -23.8248 0.24811
rradius 27.5745 0 0
rwrist -10.0665 0 0
rhand -30.6698 -42.6656 0
rfingers 7.12502 0 0
rthumb -3.96423 -792.608 0
